<?xml version="1.0" encoding="UTF-8"?>
<svg width="32" height="32" viewBox="0 0 32 32" fill="none" xmlns="http://www.w3.org/2000/svg">
  <style>
    @import url('https://fonts.googleapis.com/css2?family=Zhi+Mang+Xing&amp;display=swap');
    text {
      font-family: 'Zhi Mang Xing', cursive;
      font-size: 24px;
      fill: #1e1200;
    }
  </style>
  <rect width="32" height="32" rx="6" fill="#fdfff0"/>
  <path d="M11.2 10.4c1.6-.8 3.2-1.6 4.8-2.4.5-.3 1.1.1 1.1.7v5.6c0 .4-.3.7-.7.7H12c-.4 0-.7.3-.7.7v1.4c0 .4.3.7.7.7h4.4c.4 0 .7.3.7.7v5.6c0 .6-.6 1-1.1.7-1.6-.8-3.2-1.6-4.8-2.4-.3-.2-.5-.5-.5-.9V11.3c0-.4.2-.7.5-.9z" fill="#1e1200"/>
  <path d="M20.8 10.4c-1.6-.8-3.2-1.6-4.8-2.4-.5-.3-1.1.1-1.1.7v5.6c0 .4.3.7.7.7H20c.4 0 .7.3.7.7v1.4c0 .4-.3.7-.7.7h-4.4c-.4 0-.7.3-.7.7v5.6c0 .6.6 1 1.1.7 1.6-.8 3.2-1.6 4.8-2.4.3-.2.5-.5.5-.9V11.3c0-.4-.2-.7-.5-.9z" fill="#1e1200"/>
</svg> 